<svg xmlns="http://www.w3.org/2000/svg" width="1200" height="820" viewBox="0 0 1200 820" role="img" aria-labelledby="title desc">
  <title id="title">Panel operativo de Omdexa</title>
  <desc id="desc">Mockup de dashboard con pedidos, inventario, pagos y sucursales.</desc>
  <defs>
    <linearGradient id="bg" x1="0" x2="1" y1="0" y2="1">
      <stop offset="0" stop-color="#111827"/>
      <stop offset="1" stop-color="#0f766e"/>
    </linearGradient>
    <linearGradient id="accent" x1="0" x2="1">
      <stop offset="0" stop-color="#34d399"/>
      <stop offset="1" stop-color="#f97316"/>
    </linearGradient>
    <filter id="shadow" x="-20%" y="-20%" width="140%" height="140%">
      <feDropShadow dx="0" dy="24" stdDeviation="24" flood-color="#020617" flood-opacity=".22"/>
    </filter>
  </defs>
  <rect width="1200" height="820" fill="#eef2f7"/>
  <rect x="92" y="72" width="1016" height="676" rx="38" fill="url(#bg)" filter="url(#shadow)"/>
  <rect x="132" y="118" width="224" height="584" rx="24" fill="#0b1220" opacity=".92"/>
  <circle cx="178" cy="166" r="24" fill="#34d399"/>
  <text x="169" y="175" fill="#111827" font-family="Arial, sans-serif" font-size="24" font-weight="900">O</text>
  <text x="218" y="174" fill="#fff" font-family="Arial, sans-serif" font-size="28" font-weight="900">Omdexa</text>
  <rect x="164" y="228" width="156" height="40" rx="12" fill="#ffffff" opacity=".12"/>
  <rect x="164" y="292" width="132" height="18" rx="9" fill="#ffffff" opacity=".34"/>
  <rect x="164" y="338" width="144" height="18" rx="9" fill="#ffffff" opacity=".24"/>
  <rect x="164" y="384" width="118" height="18" rx="9" fill="#ffffff" opacity=".24"/>
  <rect x="164" y="604" width="156" height="48" rx="14" fill="#f97316"/>
  <text x="198" y="635" fill="#fff" font-family="Arial, sans-serif" font-size="17" font-weight="800">Contacto</text>
  <rect x="396" y="118" width="672" height="584" rx="28" fill="#f8fafc"/>
  <rect x="436" y="158" width="256" height="34" rx="17" fill="#111827"/>
  <rect x="436" y="218" width="176" height="20" rx="10" fill="#64748b" opacity=".55"/>
  <rect x="436" y="260" width="176" height="112" rx="18" fill="#ffffff" stroke="#dbe3ee"/>
  <rect x="646" y="260" width="176" height="112" rx="18" fill="#ffffff" stroke="#dbe3ee"/>
  <rect x="856" y="260" width="172" height="112" rx="18" fill="#ffffff" stroke="#dbe3ee"/>
  <text x="466" y="306" fill="#0f766e" font-family="Arial, sans-serif" font-size="18" font-weight="900">Pedidos</text>
  <text x="676" y="306" fill="#0f766e" font-family="Arial, sans-serif" font-size="18" font-weight="900">Stock</text>
  <text x="886" y="306" fill="#0f766e" font-family="Arial, sans-serif" font-size="18" font-weight="900">Pagos</text>
  <text x="466" y="342" fill="#111827" font-family="Arial, sans-serif" font-size="36" font-weight="900">42</text>
  <text x="676" y="342" fill="#111827" font-family="Arial, sans-serif" font-size="36" font-weight="900">98%</text>
  <text x="886" y="342" fill="#111827" font-family="Arial, sans-serif" font-size="36" font-weight="900">$18k</text>
  <rect x="436" y="412" width="360" height="220" rx="20" fill="#ffffff" stroke="#dbe3ee"/>
  <rect x="836" y="412" width="192" height="220" rx="20" fill="#111827"/>
  <rect x="472" y="454" width="272" height="16" rx="8" fill="#cbd5e1"/>
  <rect x="472" y="502" width="224" height="16" rx="8" fill="#cbd5e1"/>
  <rect x="472" y="550" width="288" height="16" rx="8" fill="#cbd5e1"/>
  <rect x="472" y="598" width="184" height="16" rx="8" fill="#cbd5e1"/>
  <path d="M880 580c18-88 52-126 102-146" fill="none" stroke="url(#accent)" stroke-width="18" stroke-linecap="round"/>
  <circle cx="926" cy="516" r="46" fill="#34d399"/>
  <text x="902" y="526" fill="#111827" font-family="Arial, sans-serif" font-size="26" font-weight="900">OK</text>
</svg>
