<svg xmlns="http://www.w3.org/2000/svg" viewBox="0 0 720 520" role="img" aria-labelledby="title desc">
  <title id="title">Pecas Cocina &amp; Cafe</title>
  <desc id="desc">Logo vectorial de Pecas Cocina &amp; Cafe.</desc>
  <defs>
    <linearGradient id="cup" x1="160" x2="560" y1="120" y2="430" gradientUnits="userSpaceOnUse">
      <stop offset="0" stop-color="#fff7ed"/>
      <stop offset="1" stop-color="#f4c38f"/>
    </linearGradient>
    <filter id="shadow" x="-20%" y="-20%" width="140%" height="140%">
      <feDropShadow dx="0" dy="16" stdDeviation="18" flood-color="#4a2514" flood-opacity=".18"/>
    </filter>
  </defs>
  <rect width="720" height="520" rx="80" fill="#fff8ef"/>
  <g filter="url(#shadow)">
    <path d="M170 214c0-37 30-67 67-67h230c37 0 67 30 67 67v98c0 80-65 145-145 145h-74c-80 0-145-65-145-145v-98Z" fill="url(#cup)" stroke="#6f3f2a" stroke-width="14"/>
    <path d="M530 242h31c42 0 75 34 75 75s-33 75-75 75h-42" fill="none" stroke="#6f3f2a" stroke-width="24" stroke-linecap="round"/>
    <path d="M224 452h256" stroke="#6f3f2a" stroke-width="18" stroke-linecap="round"/>
  </g>
  <g fill="none" stroke="#8a4f33" stroke-width="14" stroke-linecap="round">
    <path d="M282 118c-20-28 23-43 3-72"/>
    <path d="M360 118c-20-28 23-43 3-72"/>
    <path d="M438 118c-20-28 23-43 3-72"/>
  </g>
  <text x="360" y="292" text-anchor="middle" font-family="Georgia, 'Times New Roman', serif" font-size="96" font-weight="700" fill="#5d321f">Pecas</text>
  <text x="360" y="348" text-anchor="middle" font-family="Arial, sans-serif" font-size="28" font-weight="700" letter-spacing="5" fill="#8a4f33">COCINA &amp; CAFE</text>
  <g fill="#7d4a30">
    <circle cx="207" cy="176" r="10"/>
    <circle cx="506" cy="171" r="8"/>
    <circle cx="542" cy="428" r="7"/>
    <circle cx="145" cy="393" r="6"/>
  </g>
</svg>
